{
    "asset": {
        "generator": "COLLADA2GLTF",
        "version": "2.0"
    },
    "scenes": [
        {
            "nodes": [
                0
            ]
        }
    ],
    "scene": 0,
    "nodes": [
        {
            "children": [
                1
            ],
            "name": "Y_UP"
        },
        {
            "mesh": 0,
            "matrix": [
                10.0,
                0.0,
                0.0,
                0.0,
                0.0,
                10.0,
                0.0,
                0.0,
                0.0,
                0.0,
                10.0,
                0.0,
                1.7097201347351077,
                -0.5133360028266907,
                0.010736899450421334,
                1.0
            ],
            "name": "Heart"
        }
    ],
    "meshes": [
        {
            "primitives": [
                {
                    "attributes": {
                        "NORMAL": 1,
                        "POSITION": 2
                    },
                    "indices": 0,
                    "mode": 4,
                    "material": 0
                }
            ],
            "name": "ID5"
        }
    ],
    "accessors": [
        {
            "bufferView": 0,
            "byteOffset": 0,
            "componentType": 5123,
            "count": 23754,
            "max": [
                2665
            ],
            "min": [
                0
            ],
            "type": "SCALAR"
        },
        {
            "bufferView": 1,
            "byteOffset": 0,
            "componentType": 5126,
            "count": 2666,
            "max": [
                0.9997810125350952,
                0.9993529915809633,
                0.9931859970092772
            ],
            "min": [
                -0.9997810125350952,
                -1.0,
                -0.993188977241516
            ],
            "type": "VEC3"
        },
        {
            "bufferView": 1,
            "byteOffset": 31992,
            "componentType": 5126,
            "count": 2666,
            "max": [
                0.029898298904299737,
                0.2680169939994812,
                0.0725765973329544
            ],
            "min": [
                -0.030047699809074407,
                0.129286989569664,
                -0.0771532952785492
            ],
            "type": "VEC3"
        }
    ],
    "materials": [
        {
            "pbrMetallicRoughness": {
                "baseColorFactor": [
                    0.800000011920929,
                    0.800000011920929,
                    0.800000011920929,
                    1.0
                ],
                "metallicFactor": 0.0
            },
            "name": "ID2"
        }
    ],
    "bufferViews": [
        {
            "buffer": 0,
            "byteOffset": 63984,
            "byteLength": 47508,
            "target": 34963
        },
        {
            "buffer": 0,
            "byteOffset": 0,
            "byteLength": 63984,
            "byteStride": 12,
            "target": 34962
        }
    ],
    "buffers": [
        {
            "byteLength": 111492,
            "uri": "data:application/octet-stream;base64,"
        }
    ]
}
